# xmcd
#
# Track frame offsets: 
#        150
#        17402
#        33452
#        50710
#        65575
#        76700
#        111527
#        122035
#        157672
#        173898
#        189722
#        205978
#        242808
#
# Disc length: 3477 seconds
#
# Revision: 0
# Processed by: cddbd v1.5.2PL0 Copyright (c) Steve Scherf et al.
# Submitted via: ExactAudioCopy v0.95a3
#
DISCID=ad0d930d
DTITLE=Blues Cousins - Дождь
DYEAR=2003
DGENRE=Blues
TTITLE0=One Step
TTITLE1=Nobody Knows
TTITLE2=Дождь
TTITLE3=Come Together
TTITLE4=Big Hammer
TTITLE5=The Trill Is Gone
TTITLE6=Hey, Hey
TTITLE7=The Dream
TTITLE8=I've Got My Mojo Warking
TTITLE9=Ночной блюз
TTITLE10=She's My Woman
TTITLE11=The Personal Manager
TTITLE12=Caldonia
EXTD=
EXTT0=
EXTT1=
EXTT2=
EXTT3=
EXTT4=
EXTT5=
EXTT6=
EXTT7=
EXTT8=
EXTT9=
EXTT10=
EXTT11=
EXTT12=
PLAYORDER=
